/* XPM */
static char *d8600abcd9ce4c37a150cc8696d52146[] = {
/* columns rows colors chars-per-pixel */
"32 32 252 2 ",
"   c #0000E3",
".  c #0000E4",
"X  c #0000E5",
"o  c #0000E6",
"O  c #0000E7",
"+  c #0202E7",
"@  c #0303E7",
"#  c #0707E6",
"$  c #0707E7",
"%  c #0000E8",
"&  c #0000E9",
"*  c #0505E8",
"=  c #0000EE",
"-  c #0909E8",
";  c #0909E9",
":  c #0A0AE8",
">  c #0D0DE8",
",  c #0D0DE9",
"<  c #0E0EE8",
"1  c #0F0FE8",
"2  c #1212E7",
"3  c #1010E8",
"4  c #1313E8",
"5  c #1313E9",
"6  c #1515E8",
"7  c #1515E9",
"8  c #1516E9",
"9  c #1717E9",
"0  c #1919E9",
"q  c #1919EB",
"w  c #1B1BEC",
"e  c #0000FC",
"r  c #0000FD",
"t  c #0000FE",
"y  c blue",
"u  c #0303FE",
"i  c #0202FF",
"p  c #0A0AFE",
"a  c #0B0BFF",
"s  c #1414FE",
"d  c #1414FF",
"f  c #1818FF",
"g  c #1A1AFF",
"h  c #1D1DFF",
"j  c #1F20EB",
"k  c #2222EB",
"l  c #2525EB",
"z  c #2A2AEB",
"x  c #2E2EEB",
"c  c #3030EC",
"v  c #3232EC",
"b  c #3333EC",
"n  c #3333ED",
"m  c #3737EC",
"M  c #3636ED",
"N  c #3838EC",
"B  c #3A3AEC",
"V  c #3A3AED",
"C  c #3F3FED",
"Z  c #3C3DEE",
"A  c #2D2DF5",
"S  c #2424FA",
"D  c #2020FF",
"F  c #2626FE",
"G  c #2828FF",
"H  c #2B2BFF",
"J  c #2F2FFF",
"K  c #3535F7",
"L  c #3232FF",
"P  c #3636FE",
"I  c #3636FF",
"U  c #3A3AFF",
"Y  c #3D3DFF",
"T  c #3E3EFF",
"R  c #4141ED",
"E  c #4040EE",
"W  c #4343EE",
"Q  c #4747EE",
"!  c #4A4AEE",
"~  c #4A4AEF",
"^  c #4B4BEF",
"/  c #4C4CEF",
"(  c #4D4DEF",
")  c #5050EF",
"_  c #5353EF",
"`  c #5454EF",
"'  c #5556EF",
"]  c #5A5BEF",
"[  c #4343FF",
"{  c #4A4AFF",
"}  c #4F4FFF",
"|  c #5454F0",
" . c #5555F0",
".. c #5656F0",
"X. c #5757F0",
"o. c #5858F0",
"O. c #5B5CF1",
"+. c #5C5CF0",
"@. c #5D5DF0",
"#. c #5F5FF0",
"$. c #5151FF",
"%. c #5353FF",
"&. c #6464F3",
"*. c #6869F1",
"=. c #6869F2",
"-. c #6A6AF2",
";. c #6B6BF2",
":. c #6C6CF2",
">. c #6F6FF2",
",. c #6868F4",
"<. c #6B6BF5",
"1. c #6262FF",
"2. c #6D6DFF",
"3. c #6E6EFF",
"4. c #7171F2",
"5. c #7474F2",
"6. c #7474F3",
"7. c #7576F3",
"8. c #7676F2",
"9. c #7676F3",
"0. c #7777F3",
"q. c #7474F5",
"w. c #7B7BF2",
"e. c #7A7AF3",
"r. c #7A7BF3",
"t. c #7C7CF3",
"y. c #7D7DF3",
"u. c #7979F4",
"i. c #7171FA",
"p. c #7070FC",
"a. c #7B7BFB",
"s. c #7979FF",
"d. c #7D7DFF",
"f. c #7F7FFF",
"g. c #8383F4",
"h. c #8484F4",
"j. c #8585F4",
"k. c #8585F5",
"l. c #8686F4",
"z. c #8687F4",
"x. c #8888F4",
"c. c #898AF4",
"v. c #8A8AF4",
"b. c #8B8BF4",
"n. c #8C8CF5",
"m. c #8E8EF5",
"M. c #8F8FF5",
"N. c #8686F8",
"B. c #8787F8",
"V. c #8181FF",
"C. c #8787FF",
"Z. c #8989F8",
"A. c #8A8AFE",
"S. c #8F8FFF",
"D. c #9090F5",
"F. c #9292F5",
"G. c #9696F6",
"H. c #9898F6",
"J. c #9899F6",
"K. c #9C9CF6",
"L. c #9D9DF6",
"P. c #9090FF",
"I. c #9191FF",
"U. c #9292FF",
"Y. c #9696FF",
"T. c #9797FF",
"R. c #9898FF",
"E. c #9E9EFF",
"W. c #A3A3F7",
"Q. c #A4A4F6",
"!. c #A6A6F6",
"~. c #A6A6F7",
"^. c #A8A8F7",
"/. c #AAABF7",
"(. c #ACACF7",
"). c #AEAEF7",
"_. c #A0A0FE",
"`. c #A0A0FF",
"'. c #A4A5FF",
"]. c #A5A5FF",
"[. c #A5A6FF",
"{. c #A6A6FF",
"}. c #A8A8F8",
"|. c #A8A8FF",
" X c #A9A9FF",
".X c #AAAAFF",
"XX c #ABABFF",
"oX c #ADADFF",
"OX c #AEAEFF",
"+X c #B0B0F8",
"@X c #B2B2F8",
"#X c #B3B3F8",
"$X c #B1B1FA",
"%X c #B4B4F8",
"&X c #B4B5F8",
"*X c #B6B6F9",
"=X c #B6B7F9",
"-X c #B0B0FF",
";X c #B1B1FF",
":X c #B3B3FF",
">X c #B3B4FF",
",X c #B6B6FD",
"<X c #B4B4FF",
"1X c #B5B5FF",
"2X c #B7B7FF",
"3X c #B9B9F9",
"4X c #B9BAF9",
"5X c #BABAF9",
"6X c #BDBDF9",
"7X c #BEBEF9",
"8X c #B8B8FF",
"9X c #B9B9FF",
"0X c #BABAFF",
"qX c #BBBBFF",
"wX c #BCBCFF",
"eX c #BEBEFF",
"rX c #BFBFFF",
"tX c #C0C0FF",
"yX c #C0C1FF",
"uX c #C1C1FF",
"iX c #C2C2FF",
"pX c #C4C4FF",
"aX c #C6C6FF",
"sX c #C7C7FF",
"dX c #C8C8FF",
"fX c #C8C9FF",
"gX c #CDCDFF",
"hX c #CECEFF",
"jX c #CFD0FF",
"kX c #D0D0FF",
"lX c #D2D2FF",
"zX c #D4D4FF",
"xX c #D6D6FF",
"cX c #D7D7FF",
"vX c #DBDBFF",
"bX c #DDDDFF",
"nX c #DFDFFE",
"mX c #DFDFFF",
"MX c #E0E0FF",
"NX c #E2E2FF",
"BX c #E3E3FF",
"VX c #E4E4FF",
"CX c #E5E5FF",
"ZX c #E6E6FF",
"AX c #E7E7FF",
"SX c #E8E8FF",
"DX c #E9E9FF",
"FX c #EAEAFF",
"GX c #EBECFF",
"HX c #ECECFF",
"JX c #EDEDFF",
"KX c None",
/* pixels */
"KXKXKXKXKXKXKXKXKXKXKXKX>.n < % X % < n >.6XKXKXKXKXKXKXKXKXKXKX",
"KXKXKXKXKXKXKXKXKXM.5 X X k | 6.z.9.| l X X < v.KXKXKXKXKXKXKXKX",
"KXKXKXKXKXKXKX4X9 X k J.KXKXKXKXKXKXKXKXKXL.k X 5 %XKXKXKXKXKXKX",
"KXKXKXKXKXKXy.X : W.KXKXKXKXKXKXKXKXKXKXKXKXKX^.: X 6.KXKXKXKXKX",
"KXKXKXKXKX@.X Z KXKXKXKXKXKXJXMXmXZXSXKXKXKXKXKXKXW X ` KXKXKXKX",
"KXKXKXKX6.X | KXKXKXKXSX,X<.N.wXN.&.mXKXKXKXKXKXKXKX@.X =.KXKXKX",
"KXKXKX(.X W KXKXKXKXaXwXZ.X | KXv.  KXKXKXKXKXKXKXKXKX/ X Q.KXKX",
"KXKXKX: 5 KXKXKXKXqXf.J S = A V.K = p.KXkXdX,X>XGXKXKXKX0 - KXKX",
"KXKX6.X +XKXKXKXyXZX>Xt t t t t t t t t a 1.qXdXZXKXKXKX4XX =.KX",
"KXKX* n KXKXKXKXKXKXKXt t a Y Y U J t t t t '.KXKXKXKXKXKXV @ KX",
"KX~.X +XKXKXKXKXKXKXKXt t { KXKXKXKXKX1.t t G KXKXKXKXKXKX4XX L.",
"KX) * KXKXKXKXKXKXSXV.t t $.KXKXKXKXKXKXU t t |.KXhXqXKXKXKX: Q ",
"KX9 W KXKXKXKXdX;XqX3.t t $.KXKXKXKXKXKX;Xt t F :X,XXXSXKXKX! < ",
"KX% u.KXKXvX|.|.;XaXC.t t } KXKXKXKXKXKXKXt t d |.kXSXKXKXKXz.X ",
"z.X L.KXKXaX|.dXSXKXKXt t } KXKXKXKXKXKXKXt t d KXKXKXKXKXKX}.X ",
"=.X /.KXKXKXKXKXKXKXKXt t } KXKXKXKXKXKXKXt t g KXKXKXKXKXKX+X% ",
"u.X W.KXKXKXKXKXKXKXXXt t } KXKXKXKXKXKXKXt t D KXZXyXyXKXKX).X ",
"=XX z.KXKXKXKXKXzXpX3.t t } KXKXKXKXKXKXKXt t g XX,XXXhXKXKXM.% ",
"KX< / KXKXKXwX,X,XqX3.t t } KXKXKXKXKXKXS.t t I qXwXzXKXKXKXX.: ",
"KXW 5 KXKXKX`.XXdXHXwXt t %.KXKXKXKXKXKXg t t U.SXKXKXKXKXKX9 N ",
"KXF.X KXKXKXZXKXKXKXKXt t L KXKXKXKXE.h t t 1.KXKXKXKXKXKXKXX v.",
"KXKXX ~ KXKXKXKXKXKXKXt t t t t t t t t t [ KXKXKXKXKXKXKX| X KX",
"KXKX) X KXKXKXKXKXMXf.t t t t t t t t I '.KXKXKXqXMXKXKXKXX ! KX",
"KXKXKX* c KXKXKXzX`.R.s.i.% =.KX9.% KXKXKXvX'.S.kXKXKXKXM X KXKX",
"KXKXKXz.X <.KXKXKXMXkXKXKX2 ^.KX).# +XwXY.U.T.mXKXKXKX9.X y.KXKX",
"KXKXKXKXQ X z.KXKXKXKXKXKXKXKXKXE.f.A.S.Y.yXKXKXKXKXM.X Z KXKXKX",
"KXKXKXKXKXn X 4.KXKXKXKXKXKXhX|.XX,XyXmXKXKXKXKXKXu.X z KXKXKXKX",
"KXKXKXKXKXKXQ X n KXKXKXKXKXKXKXKXKXKXKXKXKXKXKXM X W KXKXKXKXKX",
"KXKXKXKXKXKXKXg.X % | KXKXKXKXKXKXKXKXKXKXKX] X X y.KXKXKXKXKXKX",
"KXKXKXKXKXKXKXKXKX) X X 9 @.G.%X6X%XG.&.0 X X / KXKXKXKXKXKXKXKX",
"KXKXKXKXKXKXKXKXKXKXKXv.V * X X % X X # M z.KXKXKXKXKXKXKXKXKXKX",
"KXKXKXKXKXKXKXKXKXKXKXKXKXKXM.w % q v.KXKXKXKXKXKXKXKXKXKXKXKXKX"
};
