/* XPM */
static char *_5bcc2d584594a9efa889f3ab7725d3b[] = {
/* columns rows colors chars-per-pixel */
"16 16 101 2 ",
"   c #0000E6",
".  c #0000FE",
"X  c #0202FF",
"o  c #0303FF",
"O  c #1D1DFF",
"+  c #3838ED",
"@  c #2222F8",
"#  c #2C2CFF",
"$  c #2D2DFF",
"%  c #3131F7",
"&  c #3434F7",
"*  c #3535FF",
"=  c #3D3DFF",
"-  c #4F4FEF",
";  c #5252EF",
":  c #5354EF",
">  c #5555EF",
",  c #5758EF",
"<  c #5A5BEF",
"1  c #5D5DEF",
"2  c #4242FF",
"3  c #5E5EF0",
"4  c #5E5FF0",
"5  c #5F5FF0",
"6  c #5251FF",
"7  c #5F5FF9",
"8  c #6364F0",
"9  c #6565F1",
"0  c #6666F1",
"q  c #6767F1",
"w  c #6969F2",
"e  c #6B6BF2",
"r  c #6D6DF1",
"t  c #6E6EF1",
"y  c #6D6DF2",
"u  c #6E6EF2",
"i  c #6F6FF2",
"p  c #6464FF",
"a  c #6F6FFA",
"s  c #6E6EFF",
"d  c #7071F1",
"f  c #7171F2",
"g  c #7475F2",
"h  c #7676F2",
"j  c #7070F7",
"k  c #7171F7",
"l  c #7B7BF2",
"z  c #7B7BF3",
"x  c #7C7CF3",
"c  c #7F7FF3",
"v  c #7373FF",
"b  c #7C7CFF",
"n  c #8080F3",
"m  c #8182F4",
"M  c #8F8FF5",
"N  c #8282F9",
"B  c #8585FF",
"V  c #8B8BFF",
"C  c #9090F5",
"Z  c #9292F5",
"A  c #9797F5",
"S  c #9595F6",
"D  c #9696F6",
"F  c #9A9AF6",
"G  c #9E9EF7",
"H  c #9494FC",
"J  c #9595FF",
"K  c #9797FF",
"L  c #9898FF",
"P  c #9D9DFF",
"I  c #A0A0F6",
"U  c #A0A0F7",
"Y  c #A3A3F7",
"T  c #A9A9F7",
"R  c #ABABF7",
"E  c #A2A2F8",
"W  c #A7A7FA",
"Q  c #A1A1FF",
"!  c #A4A3FF",
"~  c #ADADF8",
"^  c #ADADFC",
"/  c #B3B3F8",
"(  c #B7B7F9",
")  c #B9B8FF",
"_  c #BDBEFF",
"`  c #BEBEFF",
"'  c #C2C2FF",
"]  c #C6C6FF",
"[  c #C7C7FF",
"{  c #C9C9FC",
"}  c #C8C8FF",
"|  c #CACAFF",
" . c #D0D0FF",
".. c #D8D8FF",
"X. c #DDDDFF",
"o. c #DEDEFF",
"O. c #E1E1FF",
"+. c #E4E4FF",
"@. c #E4E5FF",
"#. c #E6E6FF",
"$. c None",
/* pixels */
"$.$.$.$.$.d 0 M E C 0 i $.$.$.$.",
"$.$.$.F : $.$.$.$.$.$.$.> F $.$.",
"$.$.D x $.$.{ W E $.$.$.$.n C $.",
"$.$., $.$.H @ % & a } } $.$.< $.",
"$.0 $.$.$.$.o p b 2 o K $.$.$.0 ",
"$.w $.$.$.V o $.$.$.s # o.O.$.i ",
"m G $._ ] B o $.$.$.$.o P $.$.U ",
"+ / $.$.$.$.o $.$.$.$.o $.$.$.( ",
"g U $.$.+.v o $.$.$.$.o K ' $.T ",
"$.i $. .o.! o $.$.$.6 $ +.$.$.d ",
"$.8 $.$.$.) o # = O * $.$.$.$.1 ",
"$.$.0 $.$.! 7 k k N ..] +.$.i $.",
"$.$.n D $.$.$.$.^ K _ $.$.F z $.",
"$.$.$.x i $.$.$.$.$.$.$.i z $.$.",
"$.$.$.$.$.5 d T $.~ g 3 $.$.$.$.",
"$.$.$.$.$.$.$.;   - $.$.$.$.$.$."
};
