/* XPM */
static char *_ae86bb70ff9404ea6838c31a7c2d416[] = {
/* columns rows colors chars-per-pixel */
"64 64 77 1 ",
"  c #0000E7",
". c #0B0BE7",
"X c #0404E9",
"o c #0B0BE9",
"O c #0F10E9",
"+ c #1414E9",
"@ c #1B1BEB",
"# c #0101F5",
"$ c #0C0CF2",
"% c #0000FE",
"& c #0B0BFF",
"* c #1010FE",
"= c #1A1AFF",
"- c #1F20EB",
"; c #2323EB",
": c #2728EB",
"> c #2B2AEC",
", c #2F30EC",
"< c #3232EC",
"1 c #3C3CEE",
"2 c #2222FF",
"3 c #2B2BFF",
"4 c #3535FF",
"5 c #3A3AFF",
"6 c #3F40ED",
"7 c #4343EE",
"8 c #4B4CEF",
"9 c #4F50EE",
"0 c #5354EF",
"q c #5959EF",
"w c #4F4FF0",
"e c #4949FE",
"r c #5555F0",
"t c #5758F0",
"y c #5B5CF1",
"u c #5454FF",
"i c #5E5EFF",
"p c #6465F1",
"a c #6C6CF2",
"s c #6161FF",
"d c #6C6CFF",
"f c #6F70F2",
"g c #7373F3",
"h c #7B7CF4",
"j c #7373FF",
"k c #7E7EFF",
"l c #8384F4",
"z c #8C8CF5",
"x c #8484FE",
"c c #8B8BFE",
"v c #908FFF",
"b c #8F90F5",
"n c #9394F5",
"m c #9798F7",
"M c #9D9DF7",
"N c #9494FF",
"B c #9B9BFF",
"V c #A3A3F7",
"C c #A8A9F7",
"Z c #A3A3FE",
"A c #ABABFE",
"S c #B0AFFF",
"D c #B2B3F7",
"F c #B5B5FE",
"G c #B8B7FF",
"H c #B7B8F8",
"J c #BBBBFE",
"K c #C2C2FF",
"L c #C7C8FF",
"P c #CBCBFF",
"I c #CFD0FF",
"U c #D4D4FF",
"Y c #DADAFF",
"T c #E3E4FF",
"R c #E7E8FF",
"E c #EBEBFF",
"W c None",
/* pixels */
"WWWWWWWWWWWWWWWWWWWWWWWWWWDhy6,>::,1rhCWWWWWWWWWWWWWWWWWWWWWWWWW",
"WWWWWWWWWWWWWWWWWWWWWWJy@               OyDWWWWWWWWWWWWWWWWWWWWW",
"WWWWWWWWWWWWWWWWWWWWgO                     oaWWWWWWWWWWWWWWWWWWW",
"WWWWWWWWWWWWWWWWWWy         X@<777<;X         wWWWWWWWWWWWWWWWWW",
"WWWWWWWWWWWWWWWWp       @pCWWWWWWWWWWWSa;       qWWWWWWWWWWWWWWW",
"WWWWWWWWWWWWWWDO     oaWWWWWWWWWWWWWWWWWWWgO     oVWWWWWWWWWWWWW",
"WWWWWWWWWWWWWp     +mWWWWWWWWWWWWWWWWWWWWWWWM@     qWWWWWWWWWWWW",
"WWWWWWWWWWWW1    XlWWWWWWWWWWWWWWWWWWWWWWWWWWWnX    >WWWWWWWWWWW",
"WWWWWWWWWWW@    6WWWWWWWWWWWWWWWWWWWWWWWWWWWWWWW8    OWWWWWWWWWW",
"WWWWWWWWWWo    lWWWWWWWWWWWWRYIIPPIURWWWWWWWWWWWWn    XWWWWWWWWW",
"WWWWWWWWWO    DWWWWWWWWWEULKJGJGJKKKJIWWWWWWWWWWWWK.   oWWWWWWWW",
"WWWWWWWW>   oPWWWWWWWWTKFlhhzGGJcafzWWWWWWWWWWWWWWWWo   @WWWWWWW",
"WWWWWWW9   XWWWWWWWWEKGJA+  :FFK1  ;WWWWWWWWWWWWWWWWWo   7WWWWWW",
"WWWWWWm    JWWWWWWWIFGJJS+  <UWWl  ;WWWWWWWWWTWWWWWWWWX   lWWWWW",
"WWWWWW    mWWWWWWWJFFZZZN+  9WWWg  ;WWWWWWRLFFJWWWWWWWC    WWWWW",
"WWWWW7   rWWWWWWWGGJx****X  $333$  $uxWWUKFFFGFGWWWWWWWp   <WWWW",
"WWWWJ   oWWWWWWWGFFGx%%%%%%%%%%%%%%%%%%&4vKGFFFFFWWWWWWW@   CWWW",
"WWWW:   VWWWWWWGFGIWW%%%%%%%%%%%%%%%%%%%%&sGFFFKYWWWWWWWJ   @WWW",
"WWWH   <WWWWWWLKRWWWW%%%%%%%%%%%%%%%%%%%%%%uKYWWWWWWWWWWW1   VWW",
"WWW1   JWWWWWWWWWWWWW%%%%%%%%%%%%%%%%%%%%%%%GWWWWWWWWWWWWW   >WW",
"WWW   >WWWWWWWWWWWWWW%%%%%%AWWWWWKSx4%%%%%%%2WWWWWWWWWWWWW1   WW",
"WWh   VWWWWWWWWWWWWWW%%%%%%WWWWWWWWWWW=%%%%%%xWWWWWWWWWWWWH   pW",
"WW;  XWWWWWWWWWWWWWWJ%%%%%%WWWWWWWWWWWW=%%%%%*WWWWWRKWWWWWWO  +W",
"WW   8WWWWWWWWWWWWYLk%%%%%%WWWWWWWWWWWWW%%%%%%SWWIGFAIWWWWWy   W",
"WC   VWWWWWWWWWTKSFJk%%%%%%WWWWWWWWWWWWW5%%%%%3FFFFFSSWWWWWD   n",
"Wa   WWWWWWWWLSASFGJk%%%%%%WWWWWWWWWWWWWZ%%%%%&NJGGFSARWWWWW   y",
"W1  oWWWWWRFAAASGGGKx%%%%%%WWWWWWWWWWWWWW%%%%%%jKFFFASTWWWWW;  <",
"W;  1WWWWWKAAASFGGFGx%%%%%%WWWWWWWWWWWWWW&%%%%%iJFFPRWWWWWWW8  O",
"Wo  qWWWWWGASASFFGIWW%%%%%%WWWWWWWWWWWWWW2%%%%%ePTWWWWWWWWWWa  X",
"JX  gWWWWWSAAZALRWWWW%%%%%%WWWWWWWWWWWWWW4%%%%%jWWWWWWWWWWWWz  X",
"m   bWWWWWZAJTWWWWWWW%%%%%%WWWWWWWWWWWWWW4%%%%%xWWWWWWWWWWWWV   ",
"m   nWWWWWUWWWWWWWWWW%%%%%%WWWWWWWWWWWWWW4%%%%%kWWWWWWWWWWWWV   ",
"mX  nWWWWWWWWWWWWWWWW%%%%%%WWWWWWWWWWWWWW4%%%%%xWWWWWPAWWWWWV   ",
"V   lWWWWWWWWWWWWWWWJ%%%%%%WWWWWWWWWWWWWW2%%%%%NWWUJFAZWWWWWm   ",
"Wo  pWWWWWWWWWWWWWIKk%%%%%%WWWWWWWWWWWWWW*%%%%%dPFFGFAAWWWWWh   ",
"W+  8WWWWWWWWWWYJFFJk%%%%%%WWWWWWWWWWWWWW%%%%%%dJGGGFAFWWWWWy  o",
"W<  ;WWWWWWWTLFFGGGJk%%%%%%WWWWWWWWWWWWWF%%%%%%vJGGGGZLWWWWW<  ;",
"Wr   WWWWWWAFFFGGGFKk%%%%%%WWWWWWWWWWWWWi%%%%%=SGGFFJYWWWWWWo  7",
"Wz   JWWWWWZAFGFFFFJv%%%%%%WWWWWWWWWWWWW&%%%%%eJFGIWWWWWWWWW   h",
"WW   gWWWWWJBAFFFKTWW%%%%%%WWWWWWWWWWWWs%%%%%%xIRWWWWWWWWWWl   H",
"WWo  @WWWWWWBBAUWWWWW%%%%%%WWWWWWWWWWWj%%%%%%sWWWWWWWWWWWWW,   W",
"WW9   WWWWWWLTWWWWWWW%%%%%%KWWWWWWWWx=%%%%%%*WWWWWWWWWWWWWW   1W",
"WWH   rWWWWWWWWWWWWWW%%%%%%%%%%%%%%%%%%%%%%%JWWWWWWWWWWWWWa   VW",
"WWW+  XWWWWWWWWWWWWWW%%%%%%%%%%%%%%%%%%%%%%BWWWWWWWWWWWWWWo  oWW",
"WWWl   pWWWWWWWWWWWWG%%%%%%%%%%%%%%%%%%%%*FWWWWWWWJWWWWWWh   fWW",
"WWWWX  XWWWWWWWWWEIKk%%%%%%%%%%%%%%%%%%&jWWWWWWLZvYWWWWWW.  XWWW",
"WWWWh   7WWWWWWWBSFJk&&%&####&*&####5dFWWWWWYAvNvLWWWWWWr   pWWW",
"WWWWWO   VWWWWWWKNBFSNNvc+  rWWWf  ;WWWWWWJBvNBNKWWWWWWF   XWWWW",
"WWWWWV   oWWWWWWWPvBSSGYW1  aWWWz  >WWWIZNNBBBNLWWWWWWWo   nWWWW",
"WWWWWW7   :WWWWWWWYBJTWWW<  yWWWl  +KFNNNBBBNNYWWWWWWW<   <WWWWW",
"WWWWWWWo   1WWWWWWWWWWWWWmffSWWWM,<1xBNNBNNNAWWWWWWWWw   XWWWWWW",
"WWWWWWWW    wWWWWWWWWWWWWWWWWWWLZNBBNNBNNvBYWWWWWWWWy    GWWWWWW",
"WWWWWWWWV    7WWWWWWWWWWWWWWIZNvNNNNNvvvAYWWWWWWWWWr    zWWWWWWW",
"WWWWWWWWWl    >WWWWWWWWWWWWFBNvvvvNNZFYWWWWWWWWWWW<    gWWWWWWWW",
"WWWWWWWWWWh    oSWWWWWWWWWWWWWWWWWWWWWWWWWWWWWWWHo    fWWWWWWWWW",
"WWWWWWWWWWWM     wWWWWWWWWWWWWWWWWWWWWWWWWWWWWWy     bWWWWWWWWWW",
"WWWWWWWWWWWWWo     hWWWWWWWWWWWWWWWWWWWWWWWWWlo    XJWWWWWWWWWWW",
"WWWWWWWWWWWWWW7     ofWWWWWWWWWWWWWWWWWWWWWh.     <WWWWWWWWWWWWW",
"WWWWWWWWWWWWWWWmo      <zWWWWWWWWWWWWWWWb1      XzWWWWWWWWWWWWWW",
"WWWWWWWWWWWWWWWWWfX       o1pbCGJJSba1O        pWWWWWWWWWWWWWWWW",
"WWWWWWWWWWWWWWWWWWWgo                       ofWWWWWWWWWWWWWWWWWW",
"WWWWWWWWWWWWWWWWWWWWWC6                   1MWWWWWWWWWWWWWWWWWWWW",
"WWWWWWWWWWWWWWWWWWWWWWWWHg7@oX      o@1fHWWWWWWWWWWWWWWWWWWWWWWW",
"WWWWWWWWWWWWWWWWWWWWWWWWWWWWWg@ X @fJWWWWWWWWWWWWWWWWWWWWWWWWWWW"
};
