/* XPM */
static char *_f5c2709005b484df59d683f1e288b86[] = {
/* columns rows colors chars-per-pixel */
"128 128 88 1 ",
"  c #0001DA",
". c #0000E7",
"X c #0B0CE6",
"o c #0101E8",
"O c #0708E9",
"+ c #0A0BEA",
"@ c #1313EA",
"# c #1B1CEB",
"$ c #0000F4",
"% c #0000FE",
"& c #0B0BFE",
"* c #1616F4",
"= c #1414FF",
"- c #1A1AFF",
"; c #1F20EC",
": c #2020E7",
"> c #2323EC",
", c #2728EC",
"< c #2C2CED",
"1 c #3434EE",
"2 c #3B3CEE",
"3 c #2C2CF4",
"4 c #2525FE",
"5 c #2E2EFF",
"6 c #3A3AF0",
"7 c #3333FF",
"8 c #3D3DFF",
"9 c #4444EE",
"0 c #4A4AEE",
"q c #4F50EF",
"w c #5254EF",
"e c #5658ED",
"r c #5A5BEE",
"t c #4445F0",
"y c #4B4CF0",
"u c #4545FF",
"i c #4D4DFF",
"p c #5454F1",
"a c #5758F1",
"s c #5A5BF2",
"d c #5353FF",
"f c #5A5AFF",
"g c #5E60EE",
"h c #5F60F2",
"j c #6264EF",
"k c #6768EC",
"l c #6565F3",
"z c #6769F1",
"x c #6C6CF3",
"c c #6363FF",
"v c #6F6FFF",
"b c #6F71F3",
"n c #7374F4",
"m c #7C7CF5",
"M c #7373FF",
"N c #7C7CFF",
"B c #7F80F5",
"V c #8484F5",
"C c #8788F7",
"Z c #8B8CF5",
"A c #8686FF",
"S c #8B8BFC",
"D c #9393F6",
"F c #9798F7",
"G c #9B9CF6",
"H c #9595FF",
"J c #9798FF",
"K c #9A9AFF",
"L c #A2A3F6",
"P c #AAABF7",
"I c #A4A4FE",
"U c #ACACFE",
"Y c #AFB0FF",
"T c #B6B8F5",
"R c #B6B6FF",
"E c #B7B9FC",
"W c #BBBBFF",
"Q c #BEC1FF",
"! c #C2C2FE",
"~ c #C7C8FB",
"^ c #CBCBFE",
"/ c #D3D4FF",
"( c #D7D8FF",
") c #DCDCFF",
"_ c #E3E4FF",
"` c #E7E9FD",
"' c #E9E9FF",
"] c None",
/* pixels */
"]]]]]]]]]]]]]]]]]]]]]]]]]]]]]]]]]]]]]]]]]]]]]]]]]]]]]]]]]]EPFZVVVVVVDPT]]]]]]]]]]]]]]]]]]]]]]]]]]]]]]]]]]]]]]]]]]]]]]]]]]]]]]]]]",
"]]]]]]]]]]]]]]]]]]]]]]]]]]]]]]]]]]]]]]]]]]]]]]]]]]]]Da<+o................O,yC!]]]]]]]]]]]]]]]]]]]]]]]]]]]]]]]]]]]]]]]]]]]]]]]]]]",
"]]]]]]]]]]]]]]]]]]]]]]]]]]]]]]]]]]]]]]]]]]]]]]]]n1.o.o........................o,xT]]]]]]]]]]]]]]]]]]]]]]]]]]]]]]]]]]]]]]]]]]]]]]",
"]]]]]]]]]]]]]]]]]]]]]]]]]]]]]]]]]]]]]]]]]]]]TwX.............................o.....O9L]]]]]]]]]]]]]]]]]]]]]]]]]]]]]]]]]]]]]]]]]]]",
"]]]]]]]]]]]]]]]]]]]]]]]]]]]]]]]]]]]]]]]]]]r+..............o...........................yW]]]]]]]]]]]]]]]]]]]]]]]]]]]]]]]]]]]]]]]]",
"]]]]]]]]]]]]]]]]]]]]]]]]]]]]]]]]]]]]]]]G<......................o........................#D]]]]]]]]]]]]]]]]]]]]]]]]]]]]]]]]]]]]]]",
"]]]]]]]]]]]]]]]]]]]]]]]]]]]]]]]]]]]]]V@.......................o.........o................oOx]]]]]]]]]]]]]]]]]]]]]]]]]]]]]]]]]]]]",
"]]]]]]]]]]]]]]]]]]]]]]]]]]]]]]]]]]]mO......o....o....oo.......oo...........o.............o...x]]]]]]]]]]]]]]]]]]]]]]]]]]]]]]]]]]",
"]]]]]]]]]]]]]]]]]]]]]]]]]]]]]]]]]CX...........oo......o#0lZLT]]]]]]]WPZz0,oo..o...............on]]]]]]]]]]]]]]]]]]]]]]]]]]]]]]]]",
"]]]]]]]]]]]]]]]]]]]]]]]]]]]]]]]L@.o............o.o@wD]]]]]]]]]]]]]]]]]]]]]]]Ga#...o.......o.....OZ]]]]]]]]]]]]]]]]]]]]]]]]]]]]]]",
"]]]]]]]]]]]]]]]]]]]]]]]]]]]]]]9o........o....oo<C]]]]]]]]]]]]]]]]]]]]]]]]]]]]]]]F6oo.............o1]]]]]]]]]]]]]]]]]]]]]]]]]]]]]",
"]]]]]]]]]]]]]]]]]]]]]]]]]]]]GO.............o#C]]]]]]]]]]]]]]]]]]]]]]]]]]]]]]]]]]]]]F<o............ooV]]]]]]]]]]]]]]]]]]]]]]]]]]]",
"]]]]]]]]]]]]]]]]]]]]]]]]]]]wo.........ooooy~]]]]]]]]]]]]]]]]]]]]]]]]]]]]]]]]]]]]]]]]]]jo.............1]]]]]]]]]]]]]]]]]]]]]]]]]]",
"]]]]]]]]]]]]]]]]]]]]]]]]]]@............ol]]]]]]]]]]]]]]]]]]]]]]]]]]]]]]]]]]]]]]]]]]]]]]]n+............+E]]]]]]]]]]]]]]]]]]]]]]]]",
"]]]]]]]]]]]]]]]]]]]]]]]]Lo...........ox]]]]]]]]]]]]]]]]]]]]]]]]]]]]]]]]]]]]]]]]]]]]]]]]]]]mOo.o....o....C]]]]]]]]]]]]]]]]]]]]]]]",
"]]]]]]]]]]]]]]]]]]]]]]]moo....o....ot]]]]]]]]]]]]]]]]]]]]]]]]]]]]]]]]]]]]]]]]]]]]]]]]]]]]]]]s........o...a]]]]]]]]]]]]]]]]]]]]]]",
"]]]]]]]]]]]]]]]]]]]]]]a...........#E]]]]]]]]]]]]]]]]]]]]]]]]]]]]]]]]]]]]]]]]]]]]]]]]]]]]]]]]]~,...........6]]]]]]]]]]]]]]]]]]]]]",
"]]]]]]]]]]]]]]]]]]]]]<.o..o.....on]]]]]]]]]]]]]]]]]]]]]]]]]]]]]]]]]]]]]]]]]]]]]]]]]]]]]]]]]]]]]Z....o......@]]]]]]]]]]]]]]]]]]]]",
"]]]]]]]]]]]]]]]]]]]];o.........@!]]]]]]]]]]]]]]]]]]]]]]]]]]]]]]]]]]]]]]]]]]]]]]]]]]]]]]]]]]]]]]]],..........O]]]]]]]]]]]]]]]]]]]",
"]]]]]]]]]]]]]]]]]]]>o........oy]]]]]]]]]]]]]]]]]]]]]]]]')^!!WWWWWWEEW!!^(']]]]]]]]]]]]]]]]]]]]]]]]lo.........+]]]]]]]]]]]]]]]]]]",
"]]]]]]]]]]]]]]]]]]>........ooV]]]]]]]]]]]]]]]]]]]]]'/!RRWWWEWWWWWWWWWWWEEWEW^]]]]]]]]]]]]]]]]]]]]]]Fo.......o.@]]]]]]]]]]]]]]]]]",
"]]]]]]]]]]]]]]]]]2........ooL]]]]]]]]]]]]]]]]]]]'/WRRWWWWWWWWWWWWWWWWWWWEE!(]]]]]]]]]]]]]]]]]]]]]]]]!+.........>]]]]]]]]]]]]]]]]",
"]]]]]]]]]]]]]]]]s.o.......+E]]]]]]]]]]]]]]]]]])!RW!!!!!!!!WWWWWW!!!!!!!!/]]]]]]]]]]]]]]]]]]]]]]]]]]]]]#.........2]]]]]]]]]]]]]]]",
"]]]]]]]]]]]]]]]Vo....o.oo@]]]]]]]]]]]]]]]]]]/ERWWUHDDHDDHYWWWWWRCNNBBBD]]]]]]]]]]]]]]]]]]]]]]]]]]]]]]]]>o........s]]]]]]]]]]]]]]",
"]]]]]]]]]]]]]]To.......o@]]]]]]]]]]]]]]]]])RRWWE!xOOOOO.XIWWRWWY#......L]]]]]]]]]]]]]]]]]]]]]]]]]]]]]]]]>o.......oD]]]]]]]]]]]]]",
"]]]]]]]]]]]]]]o.o.....o@]]]]]]]]]]]]]]]]'WRWRRWW!l......OIWRWRRU#......L]]]]]]]]]]]]]]]]]]]]]]]]]]]]]]]]]>o....o.ooT]]]]]]]]]]]]",
"]]]]]]]]]]]]];oo......O^]]]]]]]]]]]]]]]^RRRWWRER!lo.....+GERY!('1......L]]]]]]]]]]]]]]]]]]]]]]]]]]]]]]]]]]@........X]]]]]]]]]]]]",
"]]]]]]]]]]]]jooo....ooE]]]]]]]]]]]]]]'ERRRWRRRER!l......XKW/]]]]0......G]]]]]]]]]]]]]]]]]'^_]]]]]]]]]]]]]]]+........6]]]]]]]]]]]",
"]]]]]]]]]]]T........oF]]]]]]]]]]]]]])YRRWRRRERRR!k......+/]]]]]]0......L]]]]]]]]]]]]]]](WRRR^]]]]]]]]]]]]]]Wo........D]]]]]]]]]]",
"]]]]]]]]]]]@........l]]]]]]]]]]]]]]^YWRRR!!WW!W!!x......#]]]]]]]0......L]]]]]]]]]]]]_!RRERRRR!]]]]]]]]]]]]]]Z........o]]]]]]]]]]",
"]]]]]]]]]]k....o...1]]]]]]]]]]]]]]!RWRRWIdiiiiiid3......+HIIIIIK:......m]]]]]]]]]]/EYRRRRRERRRW]]]]]]]]]]]]]]a...o....9]]]]]]]]]",
"]]]]]]]]]].......o+]]]]]]]]]]]]]]!YRWRRWK&%%%%%%%$.......%%%%%%%o.oooo.$&4uA]]])!YRRREWRRERWRRRW]]]]]]]]]]]]]]#........T]]]]]]]]",
"]]]]]]]]]2........P]]]]]]]]]]]]]WRRRRRRWK&%%%%%%%%$$%$$%$%%%%%%%$%$%$%$%%%%%%&4cI!WRRWERRWRRERRRE]]]]]]]]]]]]]~o.......>]]]]]]]]",
"]]]]]]]]To.....o.t]]]]]]]]]]]]]!RRRRRRREK&%%%%%%%%%%%%%%%%%%%%%%%%%%%%%%%%%%%%%%=cUWRRRRRRRRRRRRRR]]]]]]]]]]]]]b........Z]]]]]]]",
"]]]]]]]]>.......O]]]]]]]]]]]]]!RRRRRRRR!!=%%%%%%%%%%%%%%%%%%%%%%%%%%%%%%%%%%%%%%%%4S!RRRRRRRRRERRY!]]]]]]]]]]]]]@.......+]]]]]]]",
"]]]]]]]G........C]]]]]]]]]]]]^RRRRRYE/]]]-%%%%%%%%%%%%%%%%%%%%%%%%%%%%%%%%%%%%%%%%%&cWERRRRRRRYE/]]]]]]]]]]]]]]]T.o....o.n]]]]]]",
"]]]]]]]#......o#]]]]]]]]]]]])YRYYR^']]]]]-%%%%%%%%%%%%%%%%%%%%%%%%%%%%%%%%%%%%%%%%%%%iEWRWRYR^`]]]]]]]]]]]]]]]]]]t.o.....O]]]]]]",
"]]]]]]P........E]]]]]]]]]]]]YYY!_]]]]]]]]-%%%%%%%%%%%%%%%%%%%%%%%%%%%%%%%%%%%%%%%%%%%%iERY!_]]]]]]]]]]]]]]]]]]]]]]oo......V]]]]]",
"]]]]]]<o......1]]]]]]]]]]]]RE(]]]]]]]]]]]-%%%%%%%%%%%%%%%%%%%%%%%%%%%%%%%%%%%%%%%%%%%%%f(]]]]]]]]]]]]]]]]]]]]]]]]]po......@]]]]]",
"]]]]]].......oE]]]]]]]]]]]_`]]]]]]]]]]]]]-%%%%%%%%%%%%%%%%%%%%%%%%%%%%%%%%%%%%%%%%%%%%%%]]]]]]]]]]]]]]]]]]]]]]]]]]]o......oP]]]]",
"]]]]]s.......<]]]]]]]]]]]]]]]]]]]]]]]]]]]-%%%%%%%%%%%%%%%%%%%%%%%%%%%%%%%%%%%%%%%%%%%%%%4]]]]]]]]]]]]]]]]]]]]]]]]]]a.......1]]]]",
"]]]]]O......oP]]]]]]]]]]]]]]]]]]]]]]]]]]]-%%%%%%%%%%%4]]]]]]]]]]]]!YKNi&%%%%%%%%%%%%%%%%%N]]]]]]]]]]]]]]]]]]]]]]]]]]........]]]]",
"]]]]G.......#]]]]]]]]]]]]]]]]]]]]]]]]]]]]-%%%%%%%%%%%7]]]]]]]]]]]]]]]]]]!d%%%%%%%%%%%%%%%%]]]]]]]]]]]]]]]]]]]]]]]]]]6.......n]]]",
"]]]]6.......m]]]]]]]]]]]]]]]]]]]]]]]]]]]]-%%%%%%%%%%%5]]]]]]]]]]]]]]]]]]]]]7%%%%%%%%%%%%%%u]]]]]]]]]]]]]]]]]]]]]]]]]P.......@]]]",
"]]]]o...o.oo]]]]]]]]]]]]]]]]]]]]]]]]]]]]]-%%%%%%%%%%%5]]]]]]]]]]]]]]]]]]]]]]c%%%%%%%%%%%%%%]]]]]]]]]]]]]]`]]]]]]]]]]]+.......]]]",
"]]]G.....oo6]]]]]]]]]]]]]]]]]]]]]]]]]]]]/=%%%%%%%%%%%5]]]]]]]]]]]]]]]]]]]]]]]c%%%%%%%%%%%%%f]]]]]]]]]]_!YU]]]]]]]]]]]h.......n]]",
"]]]0......oG]]]]]]]]]]]]]]]]]]]]]]]]]]/WK&%%%%%%%%%%%7]]]]]]]]]]]]]]]]]]]]]]]]4%%%%%%%%%%%%%]]]]]]]'^RYYYY/]]]]]]]]]]!o.o...o,]]",
"]]]+......o]]]]]]]]]]]]]]]]]]]]]]]]'!RRWK&%%%%%%%%%%%5]]]]]]]]]]]]]]]]]]]]]]]]]%%%%%%%%%%%%%K]]]]/ERREYYYYR]]]]]]]]]]]+.......]]",
"]]].......1]]]]]]]]]]]]]]]]]]]]]]/RYRRRWK&%%%%%%%%%%%5]]]]]]]]]]]]]]]]]]]]]]]]]d%%%%%%%%%%%%7])!YRRRRRRYYYU`]]]]]]]]]]yo......G]",
"]]V.......n]]]]]]]]]]]]]]]]]]])WYUYRRRWWK&%%%%%%%%%%%7]]]]]]]]]]]]]]]]]]]]]]]]]]%%%%%%%%%%%%%NWRRWRWWRWYYYU!]]]]]]]]]]Lo...o..a]",
"]]to......~]]]]]]]]]]]]]]]]_!UUUYURRRWRWK&%%%%%%%%%%%5]]]]]]]]]]]]]]]]]]]]]]]]]]4%%%%%%%%%%%%d!EWRRRRRRYYYYU]]]]]]]]]]]o......#]",
"]]+o.....O]]]]]]]]]]]]]]]^YUUYUYURRRRRRWK&%%%%%%%%%%%7]]]]]]]]]]]]]]]]]]]]]]]]]]N%%%%%%%%%%%%4RERRRRWRRYYYUU`]]]]]]]]]]#......o]",
"]]o.....o1]]]]]]]]]]]]/RUUUYUYYYYRWRRRRWK&%%%%%%%%%%%5]]]]]]]]]]]]]]]]]]]]]]]]]]]%%%%%%%%%%%%=IWWRRWRWRRUYUU!]]]]]]]]]]w.......]",
"]W.....ool]]]]]]]]]]/UUUUYUYUUUYWRRRWRWWK&%%%%%%%%%%%5]]]]]]]]]]]]]]]]]]]]]]]]]]]%%%%%%%%%%%%%SWRRRRRRRRYUUUW]]]]]]]]]]D.......F",
"]D.......L]]]]]]]]]]RUUUUUUUUUYWRWWRWRRWK&%%%%%%%%%%%5]]]]]]]]]]]]]]]]]]]]]]]]]]]5%%%%%%%%%%%%MWWRRWRRRRYY^]]]]]]]]]]]]!.......x",
"]x....o.o]]]]]]]]]]]UUUUUUUUUYRERRRRRRRWK&%%%%%%%%%%%7]]]]]]]]]]]]]]]]]]]]]]]]]]]d%%%%%%%%%%%%fWRRRRRRR~_]]]]]]]]]]]]]]].......9",
"]y......o]]]]]]]]]]]UUUUUUUUURRRRRRWRRR^^-%%%%%%%%%%%5]]]]]]]]]]]]]]]]]]]]]]]]]]]M%%%%%%%%%%%%u!RRRY!)]]]]]]]]]]]]]]]]]]@......,",
"]1......O]]]]]]]]]]'IUUUUUUUYEREWRRYE/]]]-%%%%%%%%%%%7]]]]]]]]]]]]]]]]]]]]]]]]]]]H%%%%%%%%%%%%7RRW(]]]]]]]]]]]]]]]]]]]]],....o.#",
"]:......#]]]]]]]]]])UUUUUUUUUYURRR^']]]]]-%%%%%%%%%%%5]]]]]]]]]]]]]]]]]]]]]]]]]]]I%%%%%%%%%%%%5^']]]]]]]]]]]]]]]]]]]]]]]2oo....+",
"]#......<]]]]]]]]]]^IUUUUUUUIUU!_]]]]]]]]-%%%%%%%%%%%5]]]]]]]]]]]]]]]]]]]]]]]]]]]R%%%%%%%%%%%%u]]]]]]]]]]]]]]]]]]]]]]]]]ao...o.O",
"]+......9]]]]]]]]]]^UUIUIUUUE_]]]]]]]]]]]-%%%%%%%%%%%5]]]]]]]]]]]]]]]]]]]]]]]]]]]!%%%%%%%%%%%%u]]]]]]]]]]]]]]]]]]]]]]]]]z.......",
"]+......a]]]]]]]]]]!IUUUIY(]]]]]]]]]]]]]]-%%%%%%%%%%%5]]]]]]]]]]]]]]]]]]]]]]]]]]]!%%%%%%%%%%%%u]]]]]]]]]]]]]]]]]]]]]]]]]m.......",
"]+......s]]]]]]]]]]WUIU^]]]]]]]]]]]]]]]]]-%%%%%%%%%%%5]]]]]]]]]]]]]]]]]]]]]]]]]]]!%%%%%%%%%%%%8]]]]]]]]]]]]]]]]]]]]]]]]]V.......",
"]+......h]]]]]]]]]]WW_]]]]]]]]]]]]]]]]]]]-%%%%%%%%%%%7]]]]]]]]]]]]]]]]]]]]]]]]]]]W%%%%%%%%%%%%8]]]]]]]]]]]]]]]]]]]]]]]]]V...o...",
"]+......j]]]]]]]]]]]]]]]]]]]]]]]]]]]]]]]]-%%%%%%%%%%%5]]]]]]]]]]]]]]]]]]]]]]]]]]]!%%%%%%%%%%%%u]]]]]]]]]]]]'!Y]]]]]]]]]]VO......",
"]+......s]]]]]]]]]]]]]]]]]]]]]]]]]]]]]]]]-%%%%%%%%%%%5]]]]]]]]]]]]]]]]]]]]]]]]]]]E%%%%%%%%%%%%u]]]]]]]]]]/YIIY]]]]]]]]]]V.......",
"]+......p]]]]]]]]]]]]]]]]]]]]]]]]]]]]]]]]-%%%%%%%%%%%7]]]]]]]]]]]]]]]]]]]]]]]]]]]U%%%%%%%%%%%%i]]]]]]]/ERRYUIY]]]]]]]]]]m.......",
"]+......2]]]]]]]]]]]]]]]]]]]]]]]]]]]]]]]/&%%%%%%%%%%%5]]]]]]]]]]]]]]]]]]]]]]]]]]]K%%%%%%%%%%%%c]]]])WRRRRRUIUE]]]]]]]]]]j.......",
"]#......1]]]]]]]]]]]]]]]]]]]]]]]]]]]]]^WK&%%%%%%%%%%%7]]]]]]]]]]]]]]]]]]]]]]]]]]]A%%%%%%%%%%%%N]'~YRERERRRUII!]]]]]]]]]]yo.o...O",
"],......#]]]]]]]]]]]]]]]]]]]]]]]]]](WRRWK&%%%%%%%%%%%5]]]]]]]]]]]]]]]]]]]]]]]]]]]f%%%%%%%%%%%%d!YRWWREERWYIII^]]]]]]]]]]2o.....+",
"]6....ooO]]]]]]]]]]]]]]]]]]]]]]])WRRREEWK&%%%%%%%%%%%5]]]]]]]]]]]]]]]]]]]]]]]]]]]8%%%%%%%%%%%%c!RWRRRRREEYIII(]]]]]]]]]]>......#",
"]y..ooooo]]]]]]]]]]]]]]]]]]]]_!RRRRRRERWK&%%%%%%%%%%%7]]]]]]]]]]]]]]]]]]]]]]]]]]]=%%%%%%%%%%%%NWRRRWRRWRRRUII']]]]]]]]]]+o.....<",
"]x......o]]]]]]]]]]]]]]]]]]/RRRWRRWRRRRWK&%%%%%%%%%%%5]]]]]]]]]]]]]]]]]]]]]]]]]]]%%%%%%%%%%%%&JWRRRRWRRRRRUII]]]]]]]]]]]o......0",
"]F....o.oF]]]]]]]]]]]]]](!RRRRRRRRRRRWRWK&%%%%%%%%%%%5]]]]]]]]]]]]]]]]]]]]]]]]]]U%%%%%%%%%%%%-YWRWRWRERWRRIIU]]]]]]]]]]W......on",
"]].......j]]]]]]]]]]]_!YRRRRRERRRERRWRWWK&%%%%%%%%%%%5]]]]]]]]]]]]]]]]]]]]]]]]]]f%%%%%%%%%%%%8WRRRRRRRRREYII!]]]]]]]]]]Z......oL",
"]]o......,]]]]]]]]]]]KUERRWRERWRERWRRRRWK&%%%%%%%%%%%7]]]]]]]]]]]]]]]]]]]]]]]]]]&%%%%%%%%%%%%v!RWRRWERRRYU!]]]]]]]]]]]]t.......]",
"]]@......O]]]]]]]]]]]IIURWRWRWERRRRERRRWK&%%%%%%%%%%%5]]]]]]]]]]]]]]]]]]]]]]]]]R%%%%%%%%%%%%&IEERRWRRRR~']]]]]]]]]]]]]]@......o]",
"]]y....o..E]]]]]]]]]]EIIIYRRRRREWRWRRWRWK&%%%%%%%%%%%5]]]]]]]]]]]]]]]]]]]]]]]]]8%%%%%%%%%%%%7ERRWRRYW/]]]]]]]]]]]]]]]]]o......,]",
"]]C.......x]]]]]]]]]])KIIIRWRWRRRRRERR!)]-%%%%%%%%%%%5]]]]]]]]]]]]]]]]]]]]]]]]E%%%%%%%%%%%%%MWRRYR^']]]]]]]]]]]]]]]]]]G.......r]",
"]]]......o,]]]]]]]]]]]IIIIIYRRRRRRYE/]]]]-%%%%%%%%%%%7]]]]]]]]]]]]]]]]]]]]]]]]-%%%%%%%%%%%%-URR!_]]]]]]]]]]]]]]]]]]]]]9.......P]",
"]]]+.......]]]]]]]]]]]WIKKIIYRRRR^']]]]]]-%%%%%%%%%%%5]]]]]]]]]]]]]]]]]]]]]]]u%%%%%%%%%%%%%d!(]]]]]]]]]]]]]]]]]]]]]]]]+o......]]",
"]]]a.......V]]]]]]]]]]]KIIIKIU!)]]]]]]]]]-%%%%%%%%%%%5]]]]]]]]]]]]]]]]]]]]]]5%%%%%%%%%%%%%4)]]]]]]]]]]]]]]]]]]]]]]]]]Too....o<]]",
"]]]P.......<]]]]]]]]]]]UIKKI!]]]]]]]]]]]]-%%%%%%%%%%%7]]]]]]]]]]]]]]]]]]]]M%%%%%%%%%%%%%%%W]]]]]]]]]]]]]]]]]]]]]]]]]]w...o...V]]",
"]]]]........]]]]]]]]]]]_KE_]]]]]]]]]]]]]]-%%%%%%%%%%%4]]]]]]]]]]]]]]]]]Ku%%%%%%%%%%%%%%%%d]]]]]]]]]]]]]]]]]]]]]]]]]]]X.......]]]",
"]]]]9.......l]]]]]]]]]]]]]]]]]]]]]]]]]]]]-%%%%%%%%%%%&=----=---===&%%%%%%%%%%%%%%%%%%%%%&]]]]]]]]]]]]]]]]]]]]]]]]]]]F....o..:]]]",
"]]]]P.......+]]]]]]]]]]]]]]]]]]]]]]]]]]]]-%%%%%%%%%%%%%%%%%%%%%%%%%%%%%%%%%%%%%%%%%%%%%%R]]]]]]]]]]]]]]]]]]]]]]]]]]],.......V]]]",
"]]]]]+......oD]]]]]]]]]]]]]]]]]]]]]]]]]]]-%%%%%%%%%%%%%%%%%%%%%%%%%%%%%%%%%%%%%%%%%%%%%A]]]]]]]]]]]]]]]]]]]]]]]]]]]W .....oo]]]]",
"]]]]]n......o#]]]]]]]]]]]]]]]]]]]]]]]]]]]-%%%%%%%%%%%%%%%%%%%%%%%%%%%%%%%%%%%%%%%%%%%%v]]]]]]]]]]]]]]]]]]]]]]]]]]]]2......o0]]]]",
"]]]]]]........P]]]]]]]]]]]]]]]]]]]]]]]]]]-%%%%%%%%%%%%%%%%%%%%%%%%%%%%%%%%%%%%%%%%%%%M]]]]]]]]]]]]]]]`/]]]]]]]]]]]~o......oW]]]]",
"]]]]]]2.o.....#]]]]]]]]]]]]]]]]]]]]]]]]]~=%%%%%%%%%%%%%%%%%%%%%%%%%%%%%%%%%%%%%%%%%%K]]]]]]]]]]]]]]^IK]]]]]]]]]]]]6.o.....:]]]]]",
"]]]]]]!.......oD]]]]]]]]]]]]]]]]]]]]]'^WK&%%%%%%%%%%%%%%%%%%%%%%%%%%%%%%%%%%%%%%%%7]]]]]]]]]]]]]^UJJH`]]]]]]]]]]]Wo.......L]]]]]",
"]]]]]]],.....oo@]]]]]]]]]]]]]]]]]]'^RRRWK&%%%%%%%%%%%%%%%%%%%%%%%%%%%%%%%%%%%%%%4U]]]]]]]]]]]/UHHHHJ^]]]]]]]]]]]]<.......+]]]]]]",
"]]]]]]]T........n]]]]]]]]]]]]]]]^ERRWRRWK&%%%%%%%%%%%%%%%%%%%%%%%%%%%%%%%%%%%%uW]]]]]]]]]]`RHSHHHHHR]]]]]]]]]]]]D.....o..Z]]]]]]",
"]]]]]]]]1.......o^]]]]]]]]]]]]!HHIYEYRWWK&%%%%%%%$$$$$$$$%%%%%%%$$$$$$$$%%4dI]]]]]]]]]]]^IHHHHHHJHI]]]]]]]]]]]]]+.......#]]]]]]]",
"]]]]]]]]]........<]]]]]]]]]]]]]IJIIIIYEWK54544444*..o...Oifffffd@......r]]]]]]]]]]]]])YHHHHHHJKKKI]]]]]]]]]]]]]a........L]]]]]]]",
"]]]]]]]]]y....o...V]]]]]]]]]]]]]IKKKKYWRERRRRRRRWl......#]]]]]]]9......L]]]]]]]]]]]!KKKHHHHHKKKKI]]]]]]]]]]]]]Lo.......<]]]]]]]]",
"]]]]]]]]]]oo......o]]]]]]]]]]]]]]UHKKKURREWEWRRY/C......#]]]]]]]0......L]]]]]]]]^IHJKKKKKHKKKKKI]]]]]]]]]]]]]]+o.......]]]]]]]]]",
"]]]]]]]]]]Zo......o#]]]]]]]]]]]]]]UHHKHIYYYYYIR`]]......#]]]]]]]9......L]]]]](YHHJKKKKJJKKKHKHI]]]]]]]]]]]]]]1........s]]]]]]]]]",
"]]]]]]]]]]],.o......0]]]]]]]]]]]]]]RHKKJJJKI^]]]]]......:]]]]]]]0......L]]_WKJHKKKJKJKJKKHKKHY]]]]]]]]]]]]]]xoo..o...+]]]]]]]]]]",
"]]]]]]]]]]]]........on]]]]]]]]]]]]]]^HHHKW`]]]]]]]......#]]]]]]]0......b^IHJKKJKKKKKJKKKKKKH~]]]]]]]]]]]]]]Fooo......P]]]]]]]]]]",
"]]]]]]]]]]]]B....o...oF]]]]]]]]]]]]]]`Y)]]]]]]]]]]...O..@]]]]]]]9. .O..6KHJJJKHKJHKKKJJJJHK)]]]]]]]]]]]]]]Eo........r]]]]]]]]]]]",
"]]]]]]]]]]]]]1.......ooP]]]]]]]]]]]]]]]]]]]]]]]]]]<<<<<<9]]]]]]]n#@##@@0IJHJJJJJHKHHHKJHHY]]]]]]]]]]]]]]]]O........@]]]]]]]]]]]]",
"]]]]]]]]]]]]]]@.......oo!]]]]]]]]]]]]]]]]]]]]]]]]]]]]]]]]]]]]]]]RHHHHHHHHKJJJHJJJHKJHHHK_]]]]]]]]]]]]]]]]+.o......o]]]]]]]]]]]]]",
"]]]]]]]]]]]]]]]o........OE]]]]]]]]]]]]]]]]]]]]]]]]]]]]]]]]]]]^IHHHKHJJHJJHKHJHJJJKHHHH^]]]]]]]]]]]]]]]]]@.......o.P]]]]]]]]]]]]]",
"]]]]]]]]]]]]]]]L..o....o.OU]]]]]]]]]]]]]]]]]]]]]]]]]]]]]]])YHSHHHHHHHHHHHJHHHHHHHHHH!]]]]]]]]]]]]]]]]]]+o..o.....V]]]]]]]]]]]]]]",
"]]]]]]]]]]]]]]]]V.........oL]]]]]]]]]]]]]]]]]]]]]]]]]]]]EKHHHHHHHHHHHHHHHHHHHHHHHI^]]]]]]]]]]]]]]]]]]!O.o...o...w]]]]]]]]]]]]]]]",
"]]]]]]]]]]]]]]]]]s..........V]]]]]]]]]]]]]]]]]]]]]]]]^ISHHHHHHHHHHHHHHHHHHHHHSKW_]]]]]]]]]]]]]]]]]]]Go.........2]]]]]]]]]]]]]]]]",
"]]]]]]]]]]]]]]]]]]9......o..oa]]]]]]]]]]]]]]]]]]]]]]!IHHSHSHHHHHHHHHHHHHSHHI!`]]]]]]]]]]]]]]]]]]]]]n..........<]]]]]]]]]]]]]]]]]",
"]]]]]]]]]]]]]]]]]]]6........o.>]]]]]]]]]]]]]]]]]]]]]]]]](!UIKHHHHHHHKIUE/]]]]]]]]]]]]]]]]]]]]]]]]]2oo........>]]]]]]]]]]]]]]]]]]",
"]]]]]]]]]]]]]]]]]]]]1.....o..o.oG]]]]]]]]]]]]]]]]]]]]]]]]]]]]]]]]]]]]]]]]]]]]]]]]]]]]]]]]]]]]]]]P+.....o....#]]]]]]]]]]]]]]]]]]]",
"]]]]]]]]]]]]]]]]]]]]]y...........t]]]]]]]]]]]]]]]]]]]]]]]]]]]]]]]]]]]]]]]]]]]]]]]]]]]]]]]]]]]]]so.......o..1]]]]]]]]]]]]]]]]]]]]",
"]]]]]]]]]]]]]]]]]]]]]]m...........OC]]]]]]]]]]]]]]]]]]]]]]]]]]]]]]]]]]]]]]]]]]]]]]]]]]]]]]]]]L@.ooo.......a]]]]]]]]]]]]]]]]]]]]]",
"]]]]]]]]]]]]]]]]]]]]]]]Goo...o....o.>T]]]]]]]]]]]]]]]]]]]]]]]]]]]]]]]]]]]]]]]]]]]]]]]]]]]]]~1o.......o..oB]]]]]]]]]]]]]]]]]]]]]]",
"]]]]]]]]]]]]]]]]]]]]]]]]]+..........oo1!]]]]]]]]]]]]]]]]]]]]]]]]]]]]]]]]]]]]]]]]]]]]]]]]]/y............oP]]]]]]]]]]]]]]]]]]]]]]]",
"]]]]]]]]]]]]]]]]]]]]]]]]]]1.............6W]]]]]]]]]]]]]]]]]]]]]]]]]]]]]]]]]]]]]]]]]]]]]~y....o........#]]]]]]]]]]]]]]]]]]]]]]]]]",
"]]]]]]]]]]]]]]]]]]]]]]]]]]]n.............o,F]]]]]]]]]]]]]]]]]]]]]]]]]]]]]]]]]]]]]]]]]P1 o............a]]]]]]]]]]]]]]]]]]]]]]]]]]",
"]]]]]]]]]]]]]]]]]]]]]]]]]]]]]#o.............OwW]]]]]]]]]]]]]]]]]]]]]]]]]]]]]]]]]]]]x+..............+P]]]]]]]]]]]]]]]]]]]]]]]]]]]",
"]]]]]]]]]]]]]]]]]]]]]]]]]]]]]]xo...............+yL]]]]]]]]]]]]]]]]]]]]]]]]]]]]]Tr@o.......o.......w]]]]]]]]]]]]]]]]]]]]]]]]]]]]]",
"]]]]]]]]]]]]]]]]]]]]]]]]]]]]]]]]<.................o>sL]]]]]]]]]]]]]]]]]]]]]Pj,oo................>T]]]]]]]]]]]]]]]]]]]]]]]]]]]]]]",
"]]]]]]]]]]]]]]]]]]]]]]]]]]]]]]]]]E:..............o...ooo#2anCLTTTRTUFmat>o...ooo.............o@L]]]]]]]]]]]]]]]]]]]]]]]]]]]]]]]]",
"]]]]]]]]]]]]]]]]]]]]]]]]]]]]]]]]]]]P>.................o.................o................o..@F]]]]]]]]]]]]]]]]]]]]]]]]]]]]]]]]]]",
"]]]]]]]]]]]]]]]]]]]]]]]]]]]]]]]]]]]]]P1.................o..................o........o....o:G]]]]]]]]]]]]]]]]]]]]]]]]]]]]]]]]]]]]",
"]]]]]]]]]]]]]]]]]]]]]]]]]]]]]]]]]]]]]]]!y..............................................o2E]]]]]]]]]]]]]]]]]]]]]]]]]]]]]]]]]]]]]]",
"]]]]]]]]]]]]]]]]]]]]]]]]]]]]]]]]]]]]]]]]]]Z,..o................................oo..o.>n]]]]]]]]]]]]]]]]]]]]]]]]]]]]]]]]]]]]]]]]]",
"]]]]]]]]]]]]]]]]]]]]]]]]]]]]]]]]]]]]]]]]]]]]]m<o........ooo.......................,z]]]]]]]]]]]]]]]]]]]]]]]]]]]]]]]]]]]]]]]]]]]]",
"]]]]]]]]]]]]]]]]]]]]]]]]]]]]]]]]]]]]]]]]]]]]]]]]Le:o....ooo...................@yG]]]]]]]]]]]]]]]]]]]]]]]]]]]]]]]]]]]]]]]]]]]]]]]",
"]]]]]]]]]]]]]]]]]]]]]]]]]]]]]]]]]]]]]]]]]]]]]]]]]]]]!Zh2;+ooo........oo+#6aCW]]]]]]]]]]]]]]]]]]]]]]]]]]]]]]]]]]]]]]]]]]]]]]]]]]]",
"]]]]]]]]]]]]]]]]]]]]]]]]]]]]]]]]]]]]]]]]]]]]]]]]]]]]]]]]]]Fn#O.OOO.O@nD]]]]]]]]]]]]]]]]]]]]]]]]]]]]]]]]]]]]]]]]]]]]]]]]]]]]]]]]]"
};
